<svg width="1080" height="881" viewBox="0 0 1080 881" fill="none" xmlns="http://www.w3.org/2000/svg">
<g filter="url(#filter0_b_102_7)">
<path d="M204.873 36.6308C213.747 16.4002 237.342 7.19422 257.572 16.0686L1043.3 360.737C1063.53 369.612 1072.74 393.206 1063.86 413.437L875.057 843.847C866.183 864.077 842.589 873.283 822.358 864.409L36.6306 519.74C16.4001 510.866 7.19408 487.271 16.0684 467.041L204.873 36.6308Z" fill="url(#paint0_linear_102_7)"/>
<path d="M1044 359.135L258.275 14.466C237.16 5.20338 212.533 14.8121 203.27 35.9278L14.4659 466.338C5.20324 487.453 14.812 512.08 35.9276 521.343L821.655 866.011C842.771 875.274 867.397 865.665 876.66 844.55L1065.46 414.14C1074.73 393.024 1065.12 368.397 1044 359.135Z" stroke="url(#paint1_radial_102_7)" stroke-width="3.5"/>
<path d="M1044 359.135L258.275 14.466C237.16 5.20338 212.533 14.8121 203.27 35.9278L14.4659 466.338C5.20324 487.453 14.812 512.08 35.9276 521.343L821.655 866.011C842.771 875.274 867.397 865.665 876.66 844.55L1065.46 414.14C1074.73 393.024 1065.12 368.397 1044 359.135Z" stroke="url(#paint2_radial_102_7)" stroke-width="3.5"/>
<path d="M1044 359.135L258.275 14.466C237.16 5.20338 212.533 14.8121 203.27 35.9278L14.4659 466.338C5.20324 487.453 14.812 512.08 35.9276 521.343L821.655 866.011C842.771 875.274 867.397 865.665 876.66 844.55L1065.46 414.14C1074.73 393.024 1065.12 368.397 1044 359.135Z" stroke="url(#paint3_radial_102_7)" stroke-width="3.5"/>
</g>
<path d="M139.51 472.015L117.93 499.344L108.83 495.353L112.816 472.885L98.8083 490.956L89.7093 486.965L95.421 452.675L103.465 456.204L98.0516 480.613L113.399 460.561L121.663 464.187L117.085 488.962L131.422 468.467L139.51 472.015ZM155.696 486.348C158.509 487.583 160.354 489.51 161.231 492.131C162.121 494.723 161.852 497.645 160.425 500.898L154.139 515.228L146.667 511.95L152.509 498.631C153.229 496.99 153.363 495.529 152.912 494.248C152.461 492.966 151.517 492.011 150.081 491.381C148.645 490.751 147.303 490.704 146.055 491.24C144.806 491.775 143.822 492.864 143.102 494.505L137.26 507.824L129.743 504.526L144.012 471.998L151.529 475.296L146.573 486.592C147.811 485.842 149.23 485.434 150.832 485.368C152.433 485.302 154.055 485.629 155.696 486.348ZM175.021 492.1C173.702 491.522 172.785 490.665 172.269 489.53C171.796 488.379 171.81 487.232 172.311 486.089C172.825 484.917 173.66 484.13 174.814 483.728C176.011 483.31 177.269 483.39 178.588 483.968C179.877 484.534 180.759 485.392 181.232 486.543C181.748 487.678 181.748 488.831 181.234 490.004C180.733 491.146 179.884 491.927 178.687 492.346C177.532 492.748 176.31 492.666 175.021 492.1ZM177.639 496.289L166.879 520.816L159.363 517.519L170.122 492.991L177.639 496.289ZM188.793 522.829L185.997 529.203L182.173 527.525C179.447 526.33 177.612 524.738 176.667 522.751C175.734 520.735 175.93 518.217 177.254 515.199L181.535 505.441L178.546 504.129L181.284 497.887L184.273 499.199L186.895 493.221L194.412 496.518L191.789 502.496L196.712 504.656L193.974 510.897L189.051 508.738L184.732 518.584C184.411 519.317 184.355 519.921 184.565 520.398C184.776 520.875 185.291 521.293 186.111 521.653L188.793 522.829ZM218.858 528.522C218.55 529.225 218.184 529.939 217.762 530.662L200.751 523.2C200.2 524.775 200.169 526.16 200.659 527.353C201.191 528.53 202.087 529.394 203.347 529.947C205.223 530.77 206.874 530.551 208.301 529.29L216.301 532.799C215.184 534.231 213.8 535.354 212.15 536.167C210.53 536.994 208.753 537.42 206.82 537.446C204.886 537.471 202.924 537.047 200.931 536.173C198.528 535.119 196.614 533.668 195.188 531.819C193.762 529.971 192.94 527.863 192.721 525.495C192.501 523.128 192.951 520.669 194.069 518.12C195.187 515.57 196.677 513.568 198.538 512.113C200.429 510.671 202.537 509.849 204.862 509.646C207.188 509.443 209.567 509.875 211.999 510.942C214.372 511.983 216.264 513.407 217.673 515.213C219.082 517.019 219.895 519.07 220.11 521.366C220.355 523.675 219.938 526.061 218.858 528.522ZM212.034 523.17C212.599 521.88 212.61 520.662 212.065 519.514C211.52 518.367 210.588 517.504 209.269 516.925C208.009 516.373 206.779 516.27 205.578 516.617C204.407 516.976 203.423 517.785 202.627 519.043L212.034 523.17ZM233.737 542.544L230.941 548.918L227.117 547.24C224.391 546.045 222.556 544.454 221.611 542.466C220.678 540.45 220.874 537.933 222.198 534.914L226.479 525.156L223.49 523.845L226.228 517.603L229.217 518.914L231.839 512.936L239.356 516.233L236.733 522.211L241.657 524.371L238.918 530.613L233.995 528.453L229.676 538.299C229.355 539.032 229.299 539.637 229.509 540.113C229.72 540.59 230.235 541.008 231.056 541.368L233.737 542.544ZM239.032 537.791C240.138 535.271 241.577 533.264 243.351 531.771C245.153 530.29 247.1 529.397 249.191 529.091C251.282 528.785 253.338 529.076 255.36 529.963C257.089 530.721 258.444 531.735 259.425 533.004C260.435 534.286 261.041 535.652 261.243 537.104L262.767 533.631L270.283 536.928L259.524 561.456L252.007 558.159L253.531 554.686C252.297 555.508 250.866 555.981 249.239 556.106C247.641 556.244 245.977 555.933 244.249 555.175C242.256 554.301 240.664 552.991 239.473 551.245C238.294 549.47 237.64 547.419 237.508 545.09C237.419 542.744 237.927 540.311 239.032 537.791ZM257.387 545.895C258.21 544.019 258.331 542.308 257.752 540.761C257.202 539.227 256.18 538.132 254.685 537.477C253.191 536.821 251.678 536.804 250.148 537.425C248.659 538.03 247.504 539.271 246.681 541.146C245.858 543.022 245.715 544.741 246.253 546.305C246.832 547.852 247.869 548.953 249.363 549.609C250.858 550.264 252.356 550.275 253.857 549.64C255.388 549.019 256.564 547.77 257.387 545.895ZM281.715 546.084C282.949 545.262 284.364 544.782 285.962 544.645C287.56 544.507 289.224 544.817 290.953 545.576C292.975 546.463 294.581 547.779 295.772 549.525C296.964 551.27 297.61 553.301 297.712 555.617C297.844 557.946 297.357 560.371 296.251 562.891C295.146 565.411 293.685 567.426 291.87 568.936C290.097 570.429 288.158 571.344 286.054 571.679C283.963 571.985 281.907 571.694 279.885 570.807C278.185 570.061 276.83 569.048 275.82 567.766C274.839 566.497 274.227 565.145 273.982 563.71L267.349 578.831L259.833 575.534L275.721 539.314L283.238 542.611L281.715 546.084ZM288.603 559.536C289.426 557.66 289.541 555.964 288.949 554.446C288.399 552.912 287.362 551.81 285.838 551.142C284.343 550.486 282.831 550.469 281.3 551.091C279.799 551.725 278.637 552.98 277.814 554.856C276.992 556.731 276.855 558.436 277.405 559.97C277.985 561.517 279.021 562.618 280.516 563.274C282.011 563.93 283.523 563.947 285.054 563.325C286.597 562.674 287.78 561.411 288.603 559.536Z" fill="white"/>
<path opacity="0.7" d="M280.258 177.902C262.04 152.05 279.465 116.859 313.203 115.365" stroke="white" stroke-width="6" stroke-linecap="round"/>
<path opacity="0.7" d="M313.549 183.295C300.424 165.57 312.007 142.092 335.512 141.603" stroke="white" stroke-width="6" stroke-linecap="round"/>
<path opacity="0.7" d="M240.521 169.337C222.302 143.484 249.046 90.6058 282.784 89.1121" stroke="white" stroke-width="6" stroke-linecap="round"/>
<defs>
<filter id="filter0_b_102_7" x="-70.8119" y="-70.8118" width="1221.55" height="1022.1" filterUnits="userSpaceOnUse" color-interpolation-filters="sRGB">
<feFlood flood-opacity="0" result="BackgroundImageFix"/>
<feGaussianBlur in="BackgroundImageFix" stdDeviation="40"/>
<feComposite in2="SourceAlpha" operator="in" result="effect1_backgroundBlur_102_7"/>
<feBlend mode="normal" in="SourceGraphic" in2="effect1_backgroundBlur_102_7" result="shape"/>
</filter>
<linearGradient id="paint0_linear_102_7" x1="220.941" y1="0.000194512" x2="924.419" y2="825.014" gradientUnits="userSpaceOnUse">
<stop offset="0.0303834" stop-color="white" stop-opacity="0.4"/>
<stop offset="0.960276" stop-color="white" stop-opacity="0"/>
</linearGradient>
<radialGradient id="paint1_radial_102_7" cx="0" cy="0" r="1" gradientUnits="userSpaceOnUse" gradientTransform="translate(859.243 880.589) rotate(-156.315) scale(919.272 274.254)">
<stop stop-color="#33A36D"/>
<stop offset="1" stop-color="#33A36D" stop-opacity="0.05"/>
</radialGradient>
<radialGradient id="paint2_radial_102_7" cx="0" cy="0" r="1" gradientUnits="userSpaceOnUse" gradientTransform="translate(220.942 0.000122263) rotate(23.6852) scale(227.067 215.677)">
<stop stop-color="white" stop-opacity="0.81"/>
<stop offset="1" stop-color="white" stop-opacity="0.19"/>
</radialGradient>
<radialGradient id="paint3_radial_102_7" cx="0" cy="0" r="1" gradientUnits="userSpaceOnUse" gradientTransform="translate(1080.18 376.917) rotate(113.685) scale(220.55 198.805)">
<stop stop-opacity="0.5"/>
<stop offset="1" stop-opacity="0"/>
</radialGradient>
</defs>
</svg>
