<?xml version="1.0" encoding="UTF-8"?>
<!DOCTYPE svg PUBLIC "-//W3C//DTD SVG 1.1//EN" "http://www.w3.org/Graphics/SVG/1.1/DTD/svg11.dtd">
<svg xmlns="http://www.w3.org/2000/svg" version="1.1" width="500px" height="500px" style="shape-rendering:geometricPrecision; text-rendering:geometricPrecision; image-rendering:optimizeQuality; fill-rule:evenodd; clip-rule:evenodd" xmlns:xlink="http://www.w3.org/1999/xlink">
<g><path style="opacity:1" fill="#fefefe" d="M -0.5,-0.5 C 166.167,-0.5 332.833,-0.5 499.5,-0.5C 499.5,166.167 499.5,332.833 499.5,499.5C 332.833,499.5 166.167,499.5 -0.5,499.5C -0.5,332.833 -0.5,166.167 -0.5,-0.5 Z"/></g>
<g><path style="opacity:1" fill="#0a0a0a" d="M 105.5,274.5 C 101.731,274.756 98.0641,274.423 94.5,273.5C 89.505,254.855 84.505,236.188 79.5,217.5C 82.8333,217.5 86.1667,217.5 89.5,217.5C 93.0204,232.898 96.8537,248.231 101,263.5C 104.874,248.464 108.874,233.464 113,218.5C 117,217.167 121,217.167 125,218.5C 128.736,233.205 132.569,247.872 136.5,262.5C 140.95,247.7 144.617,232.7 147.5,217.5C 151.182,217.335 154.848,217.501 158.5,218C 152.604,236.358 147.104,254.858 142,273.5C 138.27,274.46 134.437,274.793 130.5,274.5C 126.972,260.417 123.139,246.417 119,232.5C 113.869,246.377 109.369,260.377 105.5,274.5 Z"/></g>
<g><path style="opacity:1" fill="#2e2e2e" d="M 174.5,239.5 C 174.44,240.043 174.107,240.376 173.5,240.5C 172.503,232.862 172.169,225.196 172.5,217.5C 170.167,217.5 167.833,217.5 165.5,217.5C 165.5,236.5 165.5,255.5 165.5,274.5C 164.503,255.341 164.17,236.007 164.5,216.5C 167.5,216.5 170.5,216.5 173.5,216.5C 173.175,224.352 173.508,232.018 174.5,239.5 Z"/></g>
<g><path style="opacity:1" fill="#0a0a0a" d="M 174.5,239.5 C 178.75,231.724 185.084,229.558 193.5,233C 197.667,234.5 200.5,237.333 202,241.5C 202.5,252.495 202.667,263.495 202.5,274.5C 199.5,274.5 196.5,274.5 193.5,274.5C 193.666,264.828 193.5,255.161 193,245.5C 191.738,241.028 188.738,239.028 184,239.5C 179.117,239.609 175.784,241.942 174,246.5C 173.5,255.827 173.334,265.161 173.5,274.5C 170.833,274.5 168.167,274.5 165.5,274.5C 165.5,255.5 165.5,236.5 165.5,217.5C 167.833,217.5 170.167,217.5 172.5,217.5C 172.169,225.196 172.503,232.862 173.5,240.5C 174.107,240.376 174.44,240.043 174.5,239.5 Z"/></g>
<g><path style="opacity:1" fill="#101010" d="M 204.5,216.5 C 209.179,216.334 213.845,216.501 218.5,217C 219.451,220.057 219.784,223.223 219.5,226.5C 214.167,226.5 208.833,226.5 203.5,226.5C 203.253,223.061 203.586,219.728 204.5,216.5 Z"/></g>
<g><path style="opacity:1" fill="#070707" d="M 241.5,238.5 C 240.167,238.5 238.833,238.5 237.5,238.5C 237.5,250.5 237.5,262.5 237.5,274.5C 234.5,274.5 231.5,274.5 228.5,274.5C 228.5,262.5 228.5,250.5 228.5,238.5C 227.167,238.5 225.833,238.5 224.5,238.5C 224.5,236.833 224.5,235.167 224.5,233.5C 225.833,233.5 227.167,233.5 228.5,233.5C 228.335,230.15 228.502,226.817 229,223.5C 231.835,222.084 234.502,220.417 237,218.5C 237.499,223.489 237.666,228.489 237.5,233.5C 238.833,233.5 240.167,233.5 241.5,233.5C 241.5,235.167 241.5,236.833 241.5,238.5 Z"/></g>
<g><path style="opacity:1" fill="#020202" d="M 300.5,219.5 C 300.5,224.167 300.5,228.833 300.5,233.5C 302.167,233.5 303.833,233.5 305.5,233.5C 305.5,235.167 305.5,236.833 305.5,238.5C 303.833,238.5 302.167,238.5 300.5,238.5C 300.5,250.5 300.5,262.5 300.5,274.5C 297.833,274.5 295.167,274.5 292.5,274.5C 292.5,262.833 292.5,251.167 292.5,239.5C 291.432,238.566 290.099,238.232 288.5,238.5C 288.5,236.833 288.5,235.167 288.5,233.5C 290.099,233.768 291.432,233.434 292.5,232.5C 292.335,229.482 292.502,226.482 293,223.5C 295.158,221.506 297.658,220.172 300.5,219.5 Z"/></g>
<g><path style="opacity:1" fill="#5e5e5e" d="M 305.5,233.5 C 303.833,233.5 302.167,233.5 300.5,233.5C 300.5,228.833 300.5,224.167 300.5,219.5C 301.501,223.06 301.834,227.393 301.5,232.5C 303.099,232.232 304.432,232.566 305.5,233.5 Z"/></g>
<g><path style="opacity:1" fill="#0e0e0e" d="M 260.5,231.5 C 269.596,230.695 277.096,233.695 283,240.5C 284.202,242.677 284.702,245.011 284.5,247.5C 274.481,250.673 264.648,254.34 255,258.5C 255.179,265.182 258.679,268.848 265.5,269.5C 271.713,268.953 275.38,265.62 276.5,259.5C 279.167,259.5 281.833,259.5 284.5,259.5C 283.974,267.395 279.974,272.562 272.5,275C 253.141,277.644 243.974,269.144 245,249.5C 245.919,245.482 247.586,241.815 250,238.5C 253.308,235.771 256.808,233.438 260.5,231.5 Z"/></g>
<g><path style="opacity:1" fill="#0a0a0a" d="M 342.5,236.5 C 343.404,235.791 343.737,234.791 343.5,233.5C 346.167,233.5 348.833,233.5 351.5,233.5C 351.5,247.167 351.5,260.833 351.5,274.5C 348.833,274.5 346.167,274.5 343.5,274.5C 343.762,273.022 343.429,271.689 342.5,270.5C 341.893,270.624 341.56,270.957 341.5,271.5C 334.618,275.711 327.284,276.544 319.5,274C 309.352,266.554 306.186,256.721 310,244.5C 318.12,230.685 328.953,228.019 342.5,236.5 Z"/></g>
<g><path style="opacity:1" fill="#606060" d="M 351.5,233.5 C 348.833,233.5 346.167,233.5 343.5,233.5C 343.737,234.791 343.404,235.791 342.5,236.5C 342.5,235.167 342.5,233.833 342.5,232.5C 345.713,232.19 348.713,232.523 351.5,233.5 Z"/></g>
<g><path style="opacity:1" fill="#0a0a0a" d="M 369.5,270.5 C 368.509,276.979 368.176,283.646 368.5,290.5C 366.167,290.5 363.833,290.5 361.5,290.5C 361.5,271.5 361.5,252.5 361.5,233.5C 364.167,233.5 366.833,233.5 369.5,233.5C 369.351,234.552 369.517,235.552 370,236.5C 381.096,228.945 391.096,230.278 400,240.5C 404.57,249.458 404.57,258.458 400,267.5C 393.546,275.155 385.38,277.655 375.5,275C 373.34,273.668 371.34,272.168 369.5,270.5 Z"/></g>
<g><path style="opacity:1" fill="#030303" d="M 219.5,274.5 C 216.833,274.5 214.167,274.5 211.5,274.5C 211.5,261.5 211.5,248.5 211.5,235.5C 213.563,232.027 216.063,231.694 219,234.5C 219.5,247.829 219.667,261.163 219.5,274.5 Z"/></g>
<g><path style="opacity:1" fill="#292929" d="M 369.5,233.5 C 366.833,233.5 364.167,233.5 361.5,233.5C 361.5,252.5 361.5,271.5 361.5,290.5C 363.833,290.5 366.167,290.5 368.5,290.5C 368.176,283.646 368.509,276.979 369.5,270.5C 369.5,277.5 369.5,284.5 369.5,291.5C 366.5,291.5 363.5,291.5 360.5,291.5C 360.5,271.833 360.5,252.167 360.5,232.5C 363.713,232.19 366.713,232.523 369.5,233.5 Z"/></g>
<g><path style="opacity:1" fill="#797979" d="M 292.5,232.5 C 291.432,233.434 290.099,233.768 288.5,233.5C 288.5,235.167 288.5,236.833 288.5,238.5C 290.099,238.232 291.432,238.566 292.5,239.5C 290.833,239.5 289.167,239.5 287.5,239.5C 287.5,237.167 287.5,234.833 287.5,232.5C 289.167,232.5 290.833,232.5 292.5,232.5 Z"/></g>
<g><path style="opacity:1" fill="#6e6e6e" d="M 211.5,235.5 C 211.5,248.5 211.5,261.5 211.5,274.5C 214.167,274.5 216.833,274.5 219.5,274.5C 216.713,275.477 213.713,275.81 210.5,275.5C 210.171,261.99 210.504,248.656 211.5,235.5 Z"/></g>
<g><path style="opacity:1" fill="#cacaca" d="M 241.5,238.5 C 240.791,239.404 239.791,239.737 238.5,239.5C 238.828,251.345 238.495,263.012 237.5,274.5C 237.5,262.5 237.5,250.5 237.5,238.5C 238.833,238.5 240.167,238.5 241.5,238.5 Z"/></g>
<g><path style="opacity:1" fill="#f1f1f1" d="M 261.5,238.5 C 267.699,237.273 272.365,239.273 275.5,244.5C 269.089,247.702 262.422,250.369 255.5,252.5C 254.152,246.482 256.152,241.816 261.5,238.5 Z"/></g>
<g><path style="opacity:1" fill="#f8f8f8" d="M 325.5,238.5 C 331.804,237.781 337.304,239.447 342,243.5C 342.667,250.167 342.667,256.833 342,263.5C 336.442,269.924 329.942,271.091 322.5,267C 320.383,265.269 318.883,263.102 318,260.5C 315.405,251.229 317.905,243.896 325.5,238.5 Z"/></g>
<g><path style="opacity:1" fill="#f8f8f8" d="M 376.5,238.5 C 391.579,238.286 397.413,245.62 394,260.5C 389.436,269.68 382.603,271.847 373.5,267C 371.951,265.786 370.785,264.286 370,262.5C 369.333,256.5 369.333,250.5 370,244.5C 372.063,242.266 374.229,240.266 376.5,238.5 Z"/></g>
<g><path style="opacity:1" fill="#636363" d="M 305.5,238.5 C 304.432,239.434 303.099,239.768 301.5,239.5C 301.5,251.5 301.5,263.5 301.5,275.5C 298.287,275.81 295.287,275.477 292.5,274.5C 295.167,274.5 297.833,274.5 300.5,274.5C 300.5,262.5 300.5,250.5 300.5,238.5C 302.167,238.5 303.833,238.5 305.5,238.5 Z"/></g>
<g><path style="opacity:1" fill="#8d8d8d" d="M 94.5,273.5 C 98.0641,274.423 101.731,274.756 105.5,274.5C 103.866,275.161 102.033,275.494 100,275.5C 97.7047,275.453 95.8714,274.787 94.5,273.5 Z"/></g>
<g><path style="opacity:1" fill="#7d7d7d" d="M 341.5,271.5 C 341.56,270.957 341.893,270.624 342.5,270.5C 343.429,271.689 343.762,273.022 343.5,274.5C 346.167,274.5 348.833,274.5 351.5,274.5C 348.713,275.477 345.713,275.81 342.5,275.5C 342.768,273.901 342.434,272.568 341.5,271.5 Z"/></g>
</svg>
